HIERARCHY
ROOT Hips
{
	OFFSET 0.000000 0.000000 0.000000
	CHANNELS 6 Xposition Yposition Zposition Xrotation Yrotation Zrotation
	JOINT LeftUpLeg_virtual
	{
		OFFSET 0.000000 0.000000 0.000000
		CHANNELS 3 Xrotation Yrotation Zrotation
		JOINT LeftUpLeg
		{
			OFFSET 10.205400 -3.823500 0.155100
			CHANNELS 3 Xrotation Yrotation Zrotation
			JOINT LeftLeg
			{
				OFFSET 0.708757 -12.982077 0.567790
				CHANNELS 3 Xrotation Yrotation Zrotation
				JOINT LeftFoot
				{
					OFFSET -0.708756 -10.717838 -2.184338
					CHANNELS 3 Xrotation Yrotation Zrotation
					JOINT LeftToeBase
					{
						OFFSET 0.108149 -7.191104 7.560241
						CHANNELS 3 Xrotation Yrotation Zrotation
						JOINT LeftToe_End
						{
							OFFSET 0.070230 0.081724 4.490308
							CHANNELS 3 Xrotation Yrotation Zrotation
							End Site
							{
								OFFSET 0 0 0
							}
						}
					}
				}
			}
		}
	}
	JOINT RightUpLeg_virtual
	{
		OFFSET 0.000000 0.000000 0.000000
		CHANNELS 3 Xrotation Yrotation Zrotation
		JOINT RightUpLeg
		{
			OFFSET -10.205400 -3.823500 0.005500
			CHANNELS 3 Xrotation Yrotation Zrotation
			JOINT RightLeg
			{
				OFFSET -0.708756 -12.982134 0.610632
				CHANNELS 3 Xrotation Yrotation Zrotation
				JOINT RightFoot
				{
					OFFSET 0.708754 -10.717769 -1.945823
					CHANNELS 3 Xrotation Yrotation Zrotation
					JOINT RightToeBase
					{
						OFFSET -0.108140 -7.191069 7.372968
						CHANNELS 3 Xrotation Yrotation Zrotation
						JOINT RightToe_End
						{
							OFFSET -0.070227 0.081735 4.479403
							CHANNELS 3 Xrotation Yrotation Zrotation
							End Site
							{
								OFFSET 0 0 0
							}
						}
					}
				}
			}
		}
	}
	JOINT Spine_virtual
	{
		OFFSET 0.000000 0.000000 0.000000
		CHANNELS 3 Xrotation Yrotation Zrotation
		JOINT Spine
		{
			OFFSET 0.000000 6.876099 0.125700
			CHANNELS 3 Xrotation Yrotation Zrotation
			JOINT Spine1
			{
				OFFSET 0.000000 5.730043 0.104720
				CHANNELS 3 Xrotation Yrotation Zrotation
				JOINT Spine1_split
				{
					OFFSET 0.000000 5.730043 0.104720
					CHANNELS 3 Xrotation Yrotation Zrotation
					JOINT Spine2
					{
						OFFSET 0.000000 5.730043 0.104720
						CHANNELS 3 Xrotation Yrotation Zrotation
						JOINT Neck_virtual
						{
							OFFSET 0.000000 0.000000 0.000000
							CHANNELS 3 Xrotation Yrotation Zrotation
							JOINT Neck
							{
								OFFSET 0.000000 10.314075 0.188496
								CHANNELS 3 Xrotation Yrotation Zrotation
								JOINT Head
								{
									OFFSET 0.000000 7.643700 -2.377400
									CHANNELS 3 Xrotation Yrotation Zrotation
									JOINT HeadTop_End
									{
										OFFSET 0.000000 43.788605 -13.619600
										CHANNELS 3 Xrotation Yrotation Zrotation
										End Site
										{
											OFFSET 0 0 0
										}
									}
								}
							}
						}
						JOINT LeftShoulder_virtual
						{
							OFFSET 0.000000 0.000000 0.000000
							CHANNELS 3 Xrotation Yrotation Zrotation
							JOINT LeftShoulder
							{
								OFFSET 2.196100 4.412489 0.087492
								CHANNELS 3 Xrotation Yrotation Zrotation
								JOINT LeftShoulder_split
								{
									OFFSET 2.196100 4.412489 0.087492
									CHANNELS 3 Xrotation Yrotation Zrotation
									JOINT LeftArm
									{
										OFFSET 8.771219 -2.981674 -0.026999
										CHANNELS 3 Xrotation Yrotation Zrotation
										JOINT LeftForeArm
										{
											OFFSET 8.512804 0.000000 -0.000000
											CHANNELS 3 Xrotation Yrotation Zrotation
											JOINT LeftHand
											{
												OFFSET 18.484802 0.000000 -0.000000
												CHANNELS 3 Xrotation Yrotation Zrotation
												End Site
												{
													OFFSET 0 0 0
												}
											}
										}
									}
								}
							}
						}
						JOINT RightShoulder_virtual
						{
							OFFSET 0.000000 0.000000 0.000000
							CHANNELS 3 Xrotation Yrotation Zrotation
							JOINT RightShoulder
							{
								OFFSET -2.196100 4.412496 0.070690
								CHANNELS 3 Xrotation Yrotation Zrotation
								JOINT RightShoulder_split
								{
									OFFSET -2.196100 4.412496 0.070690
									CHANNELS 3 Xrotation Yrotation Zrotation
									JOINT RightArm
									{
										OFFSET -8.771282 -2.981682 -0.094208
										CHANNELS 3 Xrotation Yrotation Zrotation
										JOINT RightForeArm
										{
											OFFSET -8.494598 0.000000 0.000000
											CHANNELS 3 Xrotation Yrotation Zrotation
											JOINT RightHand
											{
												OFFSET -18.483803 0.000000 0.000001
												CHANNELS 3 Xrotation Yrotation Zrotation
												End Site
												{
													OFFSET 0 0 0
												}
											}
										}
									}
								}
							}
						}
					}
				}
			}
		}
	}
}
MOTION
Frames: 6
Frame Time: 0.03333333
6.455902 29.673328 1.541950 0.000000 0.000000 0.000000 9.508596 -0.360908 -10.019209 -58.124760 -13.636173 30.690895 61.675912 -6.851087 -3.016842 -9.115559 4.121825 -14.749787 0.285662 0.001576 -0.331273 0.000000 0.000000 0.000000 9.508596 -0.360908 -10.019209 -28.990297 -24.159889 3.404193 51.292361 7.959654 -0.345242 -31.296941 -21.075310 -5.795965 -0.000006 0.000001 0.000003 0.000000 0.000000 0.000000 9.508596 -0.360908 -10.019209 8.479193 -3.609480 -7.485086 6.795706 -2.703226 -6.539373 0.000000 0.000000 0.000000 0.000000 0.000000 0.000000 6.822729 -2.529053 -6.561654 -6.756036 -0.095603 -6.250949 -31.736764 -12.121330 11.385208 0.000000 0.000000 0.000000 6.822729 -2.529053 -6.561654 0.657394 -5.474594 -9.273310 0.000000 0.000000 0.000000 -31.650864 6.573769 -19.060521 -0.000006 -57.717284 0.000007 0.000000 0.000000 0.000000 6.822729 -2.529053 -6.561654 0.361045 -0.787754 2.746952 0.000000 0.000000 0.000000 26.141084 -12.666219 76.530835 0.000042 79.226820 -0.000028 0.000000 0.000000 0.000000 
6.472010 29.490837 1.242870 0.000000 0.000000 0.000000 8.977784 -2.847321 -9.454198 -56.887017 -13.934903 31.768463 63.588576 -5.444488 -3.111557 -10.621916 4.523832 -15.448653 0.155599 0.000473 -0.182057 0.000000 0.000000 0.000000 8.977784 -2.847321 -9.454198 -31.801552 -22.547780 3.450161 53.616360 8.349012 -0.373539 -30.782399 -21.072894 -6.634936 0.000008 0.000015 -0.000000 0.000000 0.000000 0.000000 8.977784 -2.847321 -9.454198 9.419894 -2.885661 -6.893213 7.403569 -2.428328 -6.253431 0.000000 0.000000 0.000000 0.000000 0.000000 0.000000 7.422369 -2.272621 -6.260125 -6.781101 -0.061877 -6.124013 -31.448192 -11.031245 10.615898 0.000000 0.000000 0.000000 7.422369 -2.272621 -6.260125 0.598235 -5.646893 -10.458150 0.000000 0.000000 0.000000 -29.130074 12.344778 -22.295093 -0.000015 -55.646968 -0.000023 0.000000 0.000000 0.000000 7.422369 -2.272621 -6.260125 0.490277 0.533993 3.686078 0.000000 0.000000 0.000000 21.315690 -9.569339 74.194310 -0.000032 75.301401 0.000065 0.000000 0.000000 0.000000 
6.422299 29.385826 1.068726 0.000000 0.000000 0.000000 8.643741 -4.728045 -8.969363 -56.156849 -13.792356 32.246013 65.521738 -4.013268 -3.091033 -12.137200 4.658554 -15.071654 0.093081 0.000171 -0.111577 0.000000 0.000000 0.000000 8.643741 -4.728045 -8.969363 -33.620790 -20.984445 3.923827 55.003770 8.249257 -0.409103 -30.331781 -21.168863 -7.135459 0.000049 -0.000003 -0.000001 0.000000 0.000000 0.000000 8.643741 -4.728045 -8.969363 10.004764 -2.429558 -6.501750 7.767373 -2.138701 -6.024971 0.000000 0.000000 0.000000 0.000000 0.000000 0.000000 7.779416 -1.971598 -6.025083 -6.514330 -0.027301 -5.876474 -30.509567 -10.472532 10.327552 0.000000 0.000000 0.000000 7.779416 -1.971598 -6.025083 0.524203 -5.743418 -11.652736 0.000000 0.000000 0.000000 -26.668460 15.753027 -26.299712 -0.000002 -52.301969 0.000003 0.000000 0.000000 0.000000 7.779416 -1.971598 -6.025083 0.591560 1.635289 4.805854 0.000000 0.000000 0.000000 18.029328 -7.082836 72.202497 -0.000006 72.356838 0.000016 0.000000 0.000000 0.000000 
6.314843 29.367542 0.889660 0.000000 0.000000 0.000000 8.437404 -5.511307 -8.713731 -56.281070 -13.344399 32.252177 66.452789 -3.332009 -3.013487 -12.618788 4.449164 -13.932892 0.118522 0.000297 -0.142592 0.000000 0.000000 0.000000 8.437404 -5.511307 -8.713731 -34.488122 -19.396837 4.822150 55.419964 7.118652 -0.443240 -29.829403 -21.478754 -7.041052 0.000051 0.000009 -0.000002 0.000000 0.000000 0.000000 8.437404 -5.511307 -8.713731 10.124092 -2.247361 -6.337545 7.802031 -1.932133 -5.835052 0.000000 0.000000 0.000000 0.000000 0.000000 0.000000 7.811548 -1.777851 -5.889252 -5.801800 0.019831 -5.579567 -28.437826 -10.131504 10.665859 0.000000 0.000000 0.000000 7.811548 -1.777851 -5.889252 0.459906 -5.814610 -12.820841 0.000000 0.000000 0.000000 -23.955760 18.174992 -30.086946 0.000006 -49.337489 0.000022 0.000000 0.000000 0.000000 7.811548 -1.777851 -5.889252 0.591495 2.416969 6.075931 0.000000 0.000000 0.000000 14.609013 -4.913900 71.035497 0.000008 68.647404 -0.000019 0.000000 0.000000 0.000000 
6.161430 29.449337 0.718967 0.000000 0.000000 0.000000 8.095185 -6.112059 -8.494671 -55.796816 -12.842810 32.151261 66.451559 -2.691353 -2.980215 -12.730784 4.263047 -13.086897 0.204472 0.000610 -0.206965 0.000000 0.000000 0.000000 8.095185 -6.112059 -8.494671 -34.625026 -18.195417 5.732986 54.945966 5.748368 -0.476630 -28.908847 -21.276830 -6.792177 0.000003 0.000012 0.000001 0.000000 0.000000 0.000000 8.095185 -6.112059 -8.494671 10.025746 -2.167473 -6.222844 7.694634 -1.844072 -5.695971 0.000000 0.000000 0.000000 0.000000 0.000000 0.000000 7.704304 -1.668612 -5.799786 -5.058759 0.060554 -5.161672 -25.870738 -9.124021 11.183695 0.000000 0.000000 0.000000 7.704304 -1.668612 -5.799786 0.436688 -5.873343 -13.840731 0.000000 0.000000 0.000000 -21.216851 19.677997 -33.523846 -0.000005 -46.002038 0.000005 0.000000 0.000000 0.000000 7.704304 -1.668612 -5.799786 0.628617 3.064505 7.328838 0.000000 0.000000 0.000000 10.660726 -1.748659 69.787895 0.000026 64.023536 -0.000024 0.000000 0.000000 0.000000 
5.998938 29.612122 0.564041 0.000000 0.000000 0.000000 7.655688 -6.935273 -8.292680 -54.507061 -12.288677 32.282076 65.947416 -1.923934 -2.991484 -12.972010 4.177955 -12.628998 0.399746 0.000357 -0.156603 0.000000 0.000000 0.000000 7.655688 -6.935273 -8.292680 -34.290179 -17.338775 6.594905 53.675629 4.424049 -0.505154 -27.466718 -20.458225 -6.536676 0.000012 0.000023 -0.000001 0.000000 0.000000 0.000000 7.655688 -6.935273 -8.292680 9.692382 -2.128473 -6.148807 7.437459 -1.791787 -5.611871 0.000000 0.000000 0.000000 0.000000 0.000000 0.000000 7.447821 -1.584538 -5.709141 -4.609024 0.120839 -4.760924 -22.383073 -7.757451 11.749600 0.000000 0.000000 0.000000 7.447821 -1.584538 -5.709141 0.416257 -5.889159 -14.548960 0.000000 0.000000 0.000000 -18.858955 19.921532 -37.294974 0.000006 -43.194444 0.000003 0.000000 0.000000 0.000000 7.447821 -1.584538 -5.709141 0.643601 3.846719 8.530056 0.000000 0.000000 0.000000 7.588286 1.664681 67.772668 0.000038 60.162307 -0.000032 0.000000 0.000000 0.000000 
